<?xml version="1.0" encoding="UTF-8" standalone="no"?>
<!-- Created with Inkscape (http://www.inkscape.org/) -->

<svg
   xmlns:dc="http://purl.org/dc/elements/1.1/"
   xmlns:cc="http://creativecommons.org/ns#"
   xmlns:rdf="http://www.w3.org/1999/02/22-rdf-syntax-ns#"
   xmlns:svg="http://www.w3.org/2000/svg"
   xmlns="http://www.w3.org/2000/svg"
   xmlns:sodipodi="http://sodipodi.sourceforge.net/DTD/sodipodi-0.dtd"
   xmlns:inkscape="http://www.inkscape.org/namespaces/inkscape"
   version="1.1"
   id="svg1553"
   width="620"
   height="560"
   viewBox="0 0 620 560"
   sodipodi:docname="Laser-symbol-black-elements.svg"
   inkscape:version="0.92.3 (2405546, 2018-03-11)">
  <metadata
     id="metadata1559">
    <rdf:RDF>
      <cc:Work
         rdf:about="">
        <dc:format>image/svg+xml</dc:format>
        <dc:type
           rdf:resource="http://purl.org/dc/dcmitype/StillImage" />
        <dc:title></dc:title>
      </cc:Work>
    </rdf:RDF>
  </metadata>
  <defs
     id="defs1557" />
  <sodipodi:namedview
     pagecolor="#ffffff"
     bordercolor="#666666"
     borderopacity="1"
     objecttolerance="10"
     gridtolerance="10"
     guidetolerance="10"
     inkscape:pageopacity="0"
     inkscape:pageshadow="2"
     inkscape:window-width="1920"
     inkscape:window-height="1018"
     id="namedview1555"
     showgrid="false"
     inkscape:zoom="0.84285714"
     inkscape:cx="324.03348"
     inkscape:cy="196.931"
     inkscape:window-x="-8"
     inkscape:window-y="-8"
     inkscape:window-maximized="1"
     inkscape:current-layer="svg1553" />
  <path
     style="fill:none;stroke-width:0.85;stroke:#ff0000;stroke-opacity:1;stroke-miterlimit:4;stroke-dasharray:none"
     d="m 26.414094,537.89313 c -5.17632,-1.2532 -9.80196,-5.92195 -11.03037,-11.13315 -0.75014,-3.18228 -0.34734,-7.06098 1.01656,-9.7888 C 16.759904,516.25195 80.217814,405.1199 157.41787,270.0111 292.37272,33.824853 297.84545,24.294873 299.43887,22.701453 c 5.8624,-5.86241 15.28658,-5.87272 21.13615,-0.0231 1.50923,1.50923 9.05903,14.65862 141.98243,247.289577 77.21362,135.13257 140.68265,246.28405 141.04228,247.00327 1.36389,2.72783 1.7667,6.60653 1.01655,9.7888 -1.25035,5.30431 -5.84048,9.89444 -11.14478,11.14478 -1.4169,0.334 -33.31992,0.3744 -283.5965,0.3592 -242.218976,-0.0147 -282.206086,-0.067 -283.460906,-0.37083 z M 564,508.19433 c 0,-0.0518 -17.7028,-31.07368 -39.33955,-68.9375 l -39.33958,-68.84335 -65.38115,-0.063 -65.38117,-0.063 -0.14435,0.55205 c -0.0794,0.30365 -0.11925,0.57718 -0.0886,0.60787 0.0307,0.0307 9.84185,2.32658 21.8026,5.102 11.96072,2.77543 21.8281,5.1203 21.92747,5.21083 0.0994,0.0905 -0.37875,2.2408 -1.0625,4.77837 -0.68375,2.5376 -1.2432,4.6444 -1.2432,4.68183 0,0.22945 -2.64867,-0.54363 -21.58252,-6.2993 -11.5202,-3.502 -21.11493,-6.39888 -21.32163,-6.4375 -0.25805,-0.0482 -0.63845,0.55632 -1.21432,1.9298 -0.4612,1.1 -0.76383,2.07297 -0.67253,2.16215 0.0913,0.0892 17.93925,9.56207 39.66213,21.0509 21.72287,11.4888 39.53492,21.00512 39.58235,21.14737 0.0762,0.22858 -6.19253,11.32308 -6.6931,11.84555 -0.10855,0.1133 -17.11465,-10.4151 -37.79135,-23.39642 -20.67673,-12.98135 -37.8534,-23.76155 -38.1704,-23.956 -0.508,-0.3116 -0.60423,-0.30455 -0.8112,0.0595 -0.12918,0.22715 -0.74405,1.0381 -1.3664,1.8021 l -1.13153,1.38907 16.50573,15.4443 16.50575,15.4443 -3.5593,3.56565 -3.55928,3.56565 -0.78117,-0.81205 c -0.9132,-0.94925 -29.91055,-32.01932 -30.006,-32.1508 -0.0355,-0.0488 -0.70115,0.42988 -1.47933,1.06378 -0.7782,0.63392 -1.60075,1.25825 -1.8279,1.38742 -0.3255,0.1851 -0.35438,0.33045 -0.1362,0.6862 0.15225,0.24825 10.93782,17.43035 23.96798,38.18245 21.04867,33.52265 23.64462,37.7651 23.27395,38.03615 -1.17668,0.86041 -11.4277,6.63813 -11.64758,6.56483 -0.14085,-0.0469 -9.65727,-17.85963 -21.14757,-39.5837 -11.4903,-21.7241 -20.96618,-39.57305 -21.05753,-39.66435 -0.27912,-0.27905 -4.1727,1.4745 -4.10462,1.8486 0.0338,0.18562 2.93065,9.77355 6.4375,21.3065 3.50682,11.53292 6.37607,21.1147 6.37607,21.2928 0,0.1781 -0.42187,0.43607 -0.9375,0.5733 -0.51562,0.1372 -2.62182,0.70157 -4.68045,1.25417 -2.0586,0.5526 -3.81617,0.92283 -3.90567,0.82268 -0.0895,-0.10013 -2.43195,-9.96508 -5.20545,-21.92213 -2.77353,-11.95705 -5.06595,-21.7629 -5.09433,-21.7908 -0.0284,-0.0279 -0.55785,0.0471 -1.1766,0.16668 -0.61875,0.11957 -1.60312,0.22232 -2.1875,0.2283 -1.03005,0.0105 -1.06247,0.0357 -1.06135,0.8234 0,0.44687 0.73138,20.44375 1.62385,44.4375 0.89248,23.99375 1.6232,43.93437 1.62385,44.3125 v 0.6875 h -7 -7 v -0.6875 c 0,-0.37813 0.73138,-20.31875 1.62385,-44.3125 0.89248,-23.99375 1.6232,-43.96903 1.62385,-44.38953 v -0.76452 l -2.1875,-0.25368 c -1.20312,-0.13952 -2.21072,-0.24102 -2.2391,-0.22555 -0.0284,0.0155 -2.3208,9.81115 -5.09432,21.7682 -2.7735,11.95705 -5.11278,21.81845 -5.1984,21.91423 -0.0856,0.0958 -2.23693,-0.38228 -4.78068,-1.06235 -2.54375,-0.68008 -4.65312,-1.23655 -4.6875,-1.23665 -0.22795,0 0.5996,-2.8367 6.31488,-21.64165 3.50755,-11.54093 6.40442,-21.13085 6.4375,-21.31095 0.067,-0.365 -3.8329,-2.1109 -4.10688,-1.83855 -0.0918,0.0913 -9.56732,17.94012 -21.05662,39.66405 -11.48928,21.7239 -20.99888,39.53445 -21.13243,39.57897 -0.22077,0.0736 -11.36349,-6.21782 -11.85303,-6.69245 -0.11499,-0.1115 10.44772,-17.1749 23.47268,-37.91865 13.02497,-20.74375 23.80655,-37.91905 23.95907,-38.1673 0.21875,-0.35602 0.19008,-0.50097 -0.13567,-0.6862 -0.22715,-0.12917 -1.0381,-0.74405 -1.8021,-1.3664 l -1.38907,-1.13152 -15.4443,16.50572 -15.4443,16.50575 -3.56565,-3.5593 -3.56565,-3.55927 0.81204,-0.78118 c 0.94925,-0.9132 32.01933,-29.91055 32.1508,-30.006 0.0488,-0.0354 -0.42987,-0.70115 -1.06377,-1.47932 -0.63393,-0.7782 -1.25138,-1.59148 -1.37215,-1.80728 -0.19568,-0.34962 -0.31133,-0.33815 -1.06123,0.10518 -0.4629,0.27362 -17.64447,11.0465 -38.1813,23.9397 -20.53682,12.89317 -37.43194,23.3475 -37.54472,23.23182 -0.48561,-0.4981 -6.77232,-11.61517 -6.69669,-11.84205 0.0459,-0.13782 17.85798,-9.65155 39.58231,-21.14162 21.72433,-11.49008 39.57348,-20.96655 39.66478,-21.05885 0.2726,-0.27553 -1.4734,-4.1749 -1.83855,-4.10605 -0.1801,0.034 -9.76387,2.93085 -21.29728,6.4375 -18.84599,5.73105 -21.65172,6.5483 -21.65172,6.30775 0,-0.0374 -0.55944,-2.14423 -1.2432,-4.68182 -0.68376,-2.53758 -1.16188,-4.68513 -1.0625,-4.7723 0.0994,-0.0872 9.9629,-2.42823 21.91892,-5.20225 11.95603,-2.77405 21.7517,-5.06778 21.7682,-5.09718 0.0165,-0.0294 -0.0842,-1.03782 -0.2237,-2.24095 -0.2452,-2.11427 -0.2751,-2.18745 -0.8932,-2.18635 -0.35175,0 -20.27077,0.73138 -44.26452,1.62385 -23.99375,0.89248 -43.99063,1.6232 -44.4375,1.62385 H 175 v -7 -7 h 0.8125 c 0.44687,0 20.44375,0.73138 44.4375,1.62385 23.99375,0.89248 43.91277,1.6232 44.26452,1.62385 0.61811,0 0.64801,-0.0721 0.8932,-2.18635 0.13953,-1.20312 0.2402,-2.21155 0.2237,-2.24095 -0.0165,-0.0294 -9.81217,-2.32312 -21.7682,-5.09717 -11.95602,-2.77403 -21.81954,-5.11505 -21.91892,-5.20225 -0.0994,-0.0872 0.37874,-2.23473 1.0625,-4.7723 0.68376,-2.5376 1.2432,-4.6444 1.2432,-4.68183 0,-0.24055 2.80573,0.5767 21.65516,6.30775 11.53342,3.50665 21.11719,6.40353 21.29729,6.4375 0.36515,0.0688 2.11115,-3.83052 1.83855,-4.10605 -0.0913,-0.0923 -17.94045,-9.56877 -39.66478,-21.05885 -21.72433,-11.49007 -39.53637,-21.0038 -39.58231,-21.14162 -0.0756,-0.22688 6.21108,-11.34395 6.69669,-11.84205 0.11278,-0.11568 17.0079,10.33865 37.54472,23.23182 20.53683,12.8932 37.7184,23.66608 38.1813,23.9397 0.7499,0.44333 0.86555,0.4548 1.06123,0.10518 0.12077,-0.2158 0.73822,-1.02908 1.37215,-1.80728 0.6339,-0.77817 1.1126,-1.44387 1.06377,-1.47932 -0.13147,-0.0955 -31.20155,-29.0928 -32.1508,-30.006 l -0.81204,-0.78118 3.56565,-3.55927 3.56565,-3.5593 15.44429,16.50575 15.4443,16.50572 1.38908,-1.13152 c 0.764,-0.62235 1.57495,-1.23723 1.8021,-1.3664 0.32575,-0.18523 0.35442,-0.33018 0.13567,-0.6862 -0.15252,-0.24825 -10.9341,-17.42355 -23.95907,-38.1673 -13.02496,-20.74375 -23.58767,-37.80715 -23.47268,-37.91865 0.48831,-0.47346 11.63196,-6.76613 11.85213,-6.69275 0.13305,0.0444 9.64307,17.8549 21.13338,39.57897 11.49029,21.7241 20.96617,39.57305 21.05752,39.66435 0.27913,0.27905 4.1727,-1.4745 4.10463,-1.8486 -0.0338,-0.18562 -2.93066,-9.77355 -6.4375,-21.3065 -5.70826,-18.77272 -6.54363,-21.63547 -6.31358,-21.63605 0.0344,-10e-5 2.14375,-0.55658 4.6875,-1.23665 2.54375,-0.68008 4.69505,-1.15813 4.78067,-1.06235 0.0856,0.0958 2.4249,9.95718 5.1984,21.91422 2.77353,11.95705 5.06595,21.75273 5.09433,21.7682 0.0284,0.0155 1.03597,-0.086 2.2391,-0.22555 l 2.1875,-0.25367 v -0.76453 c 0,-0.4205 -0.73138,-20.39577 -1.62385,-44.38952 -0.89248,-23.99375 -1.6232,-43.93437 -1.62385,-44.3125 v -0.6875 h 7 7 v 0.6875 c 0,0.37813 -0.73138,20.31875 -1.62385,44.3125 -0.89248,23.99375 -1.6232,43.99063 -1.62385,44.4375 0,0.7877 0.0313,0.81282 1.06135,0.8234 0.58437,0.006 1.56875,0.10872 2.1875,0.2283 0.61875,0.11957 1.14822,0.19457 1.1766,0.16667 0.0284,-0.0279 2.3208,-9.83375 5.09433,-21.7908 2.7735,-11.95704 5.11595,-21.822 5.20544,-21.92212 0.0895,-0.10015 1.84708,0.27008 3.90568,0.82267 2.05862,0.5526 4.16482,1.11698 4.68045,1.25418 0.51562,0.13722 0.9375,0.3952 0.9375,0.5733 0,0.1781 -2.86925,9.75988 -6.37608,21.2928 -3.50685,11.53295 -6.40372,21.12277 -6.4375,21.3107 -0.0389,0.21622 0.69723,0.64938 2.0041,1.17932 l 2.0655,0.83758 0.35303,-0.66925 c 18.95135,-35.92922 41.69247,-78.68642 41.88475,-78.75051 0.2215,-0.0738 10.46595,5.69829 11.64992,6.56404 0.37068,0.27105 -2.22527,4.5135 -23.27395,38.03615 -13.03015,20.7521 -23.81572,37.93419 -23.96797,38.18245 -0.21818,0.35575 -0.1893,0.5011 0.1362,0.6862 0.22715,0.12917 1.0497,0.75349 1.8279,1.38742 0.77817,0.6339 1.44387,1.1126 1.47932,1.06378 0.0954,-0.13148 29.0928,-31.20155 30.006,-32.1508 l 0.78118,-0.81205 3.55927,3.56565 3.5593,3.56565 -16.50575,15.4443 -16.50572,15.4443 1.13153,1.38907 c 0.62234,0.764 1.23722,1.57495 1.3664,1.8021 0.20697,0.364 0.3032,0.37105 0.81119,0.0595 0.317,-0.19445 17.49368,-10.97465 38.17041,-23.956 20.6767,-12.98132 37.68432,-23.50972 37.79472,-23.39642 0.49338,0.50632 6.76668,11.6147 6.6897,11.84565 -0.0474,0.1422 -17.85945,9.65847 -39.58232,21.14727 -21.72288,11.48883 -39.57083,20.96172 -39.66213,21.0509 -0.0913,0.0892 0.21133,1.06215 0.67253,2.16215 0.57587,1.37347 0.95627,1.978 1.21432,1.9298 0.2067,-0.0386 9.80143,-2.9355 21.32162,-6.4375 18.93386,-5.75568 21.58253,-6.52875 21.58253,-6.2993 0,0.0374 0.55945,2.14422 1.2432,4.68182 0.68375,2.53758 1.16187,4.68783 1.0625,4.7783 -0.0994,0.0905 -9.96598,2.43458 -21.92578,5.2091 -11.95977,2.77453 -21.77094,5.07048 -21.80257,5.1021 -0.0317,0.0316 0.007,0.30573 0.0867,0.6091 l 0.14425,0.55158 h 61.35091 61.3509 L 476.571,355.07848 C 476.18665,354.41656 438.58125,288.60543 393,208.83382 347.41875,129.06222 310.06875,63.794563 310,63.794573 c -0.10818,1e-5 -253.735356,443.698107 -253.958336,444.277407 -0.0469,0.12193 110.895466,0.2165 253.937506,0.2165 139.71145,0 254.02083,-0.0424 254.02083,-0.0942 z"
     id="path1563"
     inkscape:connector-curvature="0" />
</svg>
