<?xml version="1.0" encoding="UTF-8" standalone="no"?>
<!-- Created with Inkscape (http://www.inkscape.org/) -->

<svg
   xmlns:dc="http://purl.org/dc/elements/1.1/"
   xmlns:cc="http://creativecommons.org/ns#"
   xmlns:rdf="http://www.w3.org/1999/02/22-rdf-syntax-ns#"
   xmlns:svg="http://www.w3.org/2000/svg"
   xmlns="http://www.w3.org/2000/svg"
   xmlns:sodipodi="http://sodipodi.sourceforge.net/DTD/sodipodi-0.dtd"
   xmlns:inkscape="http://www.inkscape.org/namespaces/inkscape"
   version="1.1"
   id="svg998"
   width="660.02753"
   height="589.93988"
   viewBox="0 0 660.02753 589.93988"
   sodipodi:docname="Laser-symbol-schwarz.svg"
   inkscape:version="0.92.3 (2405546, 2018-03-11)">
  <metadata
     id="metadata1004">
    <rdf:RDF>
      <cc:Work
         rdf:about="">
        <dc:format>image/svg+xml</dc:format>
        <dc:type
           rdf:resource="http://purl.org/dc/dcmitype/StillImage" />
        <dc:title></dc:title>
      </cc:Work>
    </rdf:RDF>
  </metadata>
  <defs
     id="defs1002" />
  <sodipodi:namedview
     pagecolor="#ffffff"
     bordercolor="#666666"
     borderopacity="1"
     objecttolerance="10"
     gridtolerance="10"
     guidetolerance="10"
     inkscape:pageopacity="0"
     inkscape:pageshadow="2"
     inkscape:window-width="1871"
     inkscape:window-height="994"
     id="namedview1000"
     showgrid="false"
     fit-margin-top="20"
     fit-margin-left="20"
     fit-margin-right="20"
     fit-margin-bottom="20"
     inkscape:zoom="1.19198"
     inkscape:cx="328.34963"
     inkscape:cy="293.26101"
     inkscape:window-x="0"
     inkscape:window-y="0"
     inkscape:window-maximized="0"
     inkscape:current-layer="svg998" />
  <path
     style="fill:none;stroke-width:0.5;stroke-miterlimit:4;stroke-dasharray:none;stroke:#0000ff;stroke-opacity:1"
     d="m 46.277512,569.80334 c -7.27868,-1.11709 -13.02621,-4.06017 -17.95487,-9.19397 -8.2967,-8.64205 -10.62134,-21.34472 -5.92787,-32.392 0.82332,-1.9379 281.163808,-492.713024 282.962708,-495.3657 1.29368,-1.907661 4.5914,-5.344894 6.516,-6.791643 5.02413,-3.776701 10.66675,-5.785931 16.94228,-6.032825 6.51505,-0.256317 12.21055,1.29549 17.59267,4.793335 2.55763,1.662189 6.7462,5.713222 8.2942,8.021829 1.86865,2.786763 282.15393,493.483304 282.9576,495.375004 1.58875,3.7395 2.36728,7.60375 2.36728,11.75 0,8.13225 -3.00283,15.31625 -8.8433,21.1567 -4.6766,4.6766 -10.02463,7.46147 -16.27605,8.47542 -1.97133,0.31975 -37.91338,0.36171 -285.13065,0.33283 -155.58125,-0.0183 -283.156248,-0.0762 -283.499998,-0.12898 z"
     id="path1008"
     inkscape:connector-curvature="0" />
</svg>
